<svg xmlns="http://www.w3.org/2000/svg" xmlns:xlink="http://www.w3.org/1999/xlink" width="500" zoomAndPan="magnify" viewBox="0 0 375 374.999991" height="500" preserveAspectRatio="xMidYMid meet" version="1.2"><defs/><g id="ee16ba2349"><rect x="0" width="375" y="0" height="374.999991" style="fill:#ffffff;fill-opacity:1;stroke:none;"/><rect x="0" width="375" y="0" height="374.999991" style="fill:#1d4ac8;fill-opacity:1;stroke:none;"/><g style="fill:#ffffff;fill-opacity:1;"><g transform="translate(68.15625, 199.499987)"><path style="stroke:none" d="M 7.109375 0 L 0.78125 0 L 9 -24.34375 L 16.828125 -24.34375 L 25.046875 0 L 18.71875 0 L 13 -18.203125 L 12.8125 -18.203125 Z M 6.265625 -9.578125 L 19.484375 -9.578125 L 19.484375 -5.109375 L 6.265625 -5.109375 Z M 6.265625 -9.578125 "/></g></g><g style="fill:#ffffff;fill-opacity:1;"><g transform="translate(93.973902, 199.499987)"><path style="stroke:none" d="M 7.078125 -4.796875 L 7.109375 -11.71875 L 7.921875 -11.71875 L 13.046875 -18.25 L 19.640625 -18.25 L 12 -8.890625 L 10.46875 -8.890625 Z M 1.84375 0 L 1.84375 -24.34375 L 7.65625 -24.34375 L 7.65625 0 Z M 13.1875 0 L 8.40625 -7.578125 L 12.234375 -11.703125 L 19.890625 0 Z M 13.1875 0 "/></g></g><g style="fill:#ffffff;fill-opacity:1;"><g transform="translate(113.851007, 199.499987)"><path style="stroke:none" d="M 6.984375 0.3125 C 5.816406 0.3125 4.785156 0.113281 3.890625 -0.28125 C 2.992188 -0.675781 2.285156 -1.269531 1.765625 -2.0625 C 1.242188 -2.851562 0.984375 -3.851562 0.984375 -5.0625 C 0.984375 -6.070312 1.160156 -6.925781 1.515625 -7.625 C 1.878906 -8.320312 2.375 -8.890625 3 -9.328125 C 3.625 -9.765625 4.34375 -10.09375 5.15625 -10.3125 C 5.96875 -10.539062 6.835938 -10.695312 7.765625 -10.78125 C 8.804688 -10.875 9.644531 -10.972656 10.28125 -11.078125 C 10.914062 -11.191406 11.375 -11.347656 11.65625 -11.546875 C 11.945312 -11.742188 12.09375 -12.03125 12.09375 -12.40625 L 12.09375 -12.46875 C 12.09375 -13.070312 11.882812 -13.539062 11.46875 -13.875 C 11.050781 -14.207031 10.484375 -14.375 9.765625 -14.375 C 8.992188 -14.375 8.375 -14.207031 7.90625 -13.875 C 7.445312 -13.539062 7.15625 -13.082031 7.03125 -12.5 L 1.65625 -12.6875 C 1.820312 -13.800781 2.234375 -14.796875 2.890625 -15.671875 C 3.554688 -16.546875 4.46875 -17.234375 5.625 -17.734375 C 6.789062 -18.242188 8.1875 -18.5 9.8125 -18.5 C 10.976562 -18.5 12.050781 -18.359375 13.03125 -18.078125 C 14.019531 -17.804688 14.878906 -17.410156 15.609375 -16.890625 C 16.335938 -16.367188 16.898438 -15.734375 17.296875 -14.984375 C 17.703125 -14.234375 17.90625 -13.375 17.90625 -12.40625 L 17.90625 0 L 12.4375 0 L 12.4375 -2.546875 L 12.296875 -2.546875 C 11.960938 -1.921875 11.546875 -1.394531 11.046875 -0.96875 C 10.546875 -0.539062 9.957031 -0.21875 9.28125 0 C 8.601562 0.207031 7.835938 0.3125 6.984375 0.3125 Z M 8.78125 -3.5 C 9.40625 -3.5 9.96875 -3.625 10.46875 -3.875 C 10.976562 -4.125 11.382812 -4.472656 11.6875 -4.921875 C 11.988281 -5.367188 12.140625 -5.890625 12.140625 -6.484375 L 12.140625 -8.21875 C 11.972656 -8.132812 11.769531 -8.054688 11.53125 -7.984375 C 11.300781 -7.910156 11.046875 -7.84375 10.765625 -7.78125 C 10.492188 -7.71875 10.207031 -7.660156 9.90625 -7.609375 C 9.613281 -7.566406 9.332031 -7.523438 9.0625 -7.484375 C 8.519531 -7.398438 8.054688 -7.265625 7.671875 -7.078125 C 7.285156 -6.898438 6.988281 -6.664062 6.78125 -6.375 C 6.582031 -6.082031 6.484375 -5.738281 6.484375 -5.34375 C 6.484375 -4.738281 6.695312 -4.28125 7.125 -3.96875 C 7.5625 -3.65625 8.113281 -3.5 8.78125 -3.5 Z M 8.78125 -3.5 "/></g></g><g style="fill:#ffffff;fill-opacity:1;"><g transform="translate(133.442959, 199.499987)"><path style="stroke:none" d="M 8.515625 0.265625 C 7.160156 0.265625 5.929688 -0.0820312 4.828125 -0.78125 C 3.734375 -1.476562 2.859375 -2.523438 2.203125 -3.921875 C 1.546875 -5.316406 1.21875 -7.046875 1.21875 -9.109375 C 1.21875 -11.265625 1.554688 -13.035156 2.234375 -14.421875 C 2.910156 -15.804688 3.800781 -16.832031 4.90625 -17.5 C 6.019531 -18.164062 7.210938 -18.5 8.484375 -18.5 C 9.441406 -18.5 10.257812 -18.332031 10.9375 -18 C 11.625 -17.664062 12.1875 -17.242188 12.625 -16.734375 C 13.070312 -16.222656 13.410156 -15.6875 13.640625 -15.125 L 13.765625 -15.125 L 13.765625 -24.34375 L 19.578125 -24.34375 L 19.578125 0 L 13.828125 0 L 13.828125 -2.953125 L 13.640625 -2.953125 C 13.398438 -2.390625 13.050781 -1.863281 12.59375 -1.375 C 12.144531 -0.882812 11.582031 -0.488281 10.90625 -0.1875 C 10.226562 0.113281 9.429688 0.265625 8.515625 0.265625 Z M 10.53125 -4.265625 C 11.238281 -4.265625 11.835938 -4.460938 12.328125 -4.859375 C 12.828125 -5.265625 13.210938 -5.832031 13.484375 -6.5625 C 13.753906 -7.289062 13.890625 -8.144531 13.890625 -9.125 C 13.890625 -10.125 13.753906 -10.984375 13.484375 -11.703125 C 13.222656 -12.421875 12.84375 -12.972656 12.34375 -13.359375 C 11.84375 -13.753906 11.238281 -13.953125 10.53125 -13.953125 C 9.8125 -13.953125 9.203125 -13.753906 8.703125 -13.359375 C 8.203125 -12.960938 7.820312 -12.40625 7.5625 -11.6875 C 7.300781 -10.96875 7.171875 -10.113281 7.171875 -9.125 C 7.171875 -8.144531 7.300781 -7.289062 7.5625 -6.5625 C 7.832031 -5.832031 8.210938 -5.265625 8.703125 -4.859375 C 9.203125 -4.460938 9.8125 -4.265625 10.53125 -4.265625 Z M 10.53125 -4.265625 "/></g></g><g style="fill:#ffffff;fill-opacity:1;"><g transform="translate(154.852724, 199.499987)"><path style="stroke:none" d="M 10.375 0.34375 C 8.46875 0.34375 6.820312 -0.03125 5.4375 -0.78125 C 4.050781 -1.539062 2.988281 -2.625 2.25 -4.03125 C 1.507812 -5.4375 1.140625 -7.113281 1.140625 -9.0625 C 1.140625 -10.945312 1.507812 -12.59375 2.25 -14 C 3 -15.414062 4.050781 -16.519531 5.40625 -17.3125 C 6.757812 -18.101562 8.359375 -18.5 10.203125 -18.5 C 11.492188 -18.5 12.675781 -18.296875 13.75 -17.890625 C 14.832031 -17.484375 15.765625 -16.882812 16.546875 -16.09375 C 17.335938 -15.300781 17.953125 -14.320312 18.390625 -13.15625 C 18.828125 -12 19.046875 -10.671875 19.046875 -9.171875 L 19.046875 -7.71875 L 3.171875 -7.71875 L 3.171875 -11.09375 L 13.625 -11.09375 C 13.625 -11.71875 13.476562 -12.269531 13.1875 -12.75 C 12.90625 -13.238281 12.515625 -13.617188 12.015625 -13.890625 C 11.523438 -14.160156 10.957031 -14.296875 10.3125 -14.296875 C 9.664062 -14.296875 9.082031 -14.148438 8.5625 -13.859375 C 8.050781 -13.578125 7.644531 -13.1875 7.34375 -12.6875 C 7.039062 -12.1875 6.882812 -11.625 6.875 -11 L 6.875 -7.578125 C 6.875 -6.828125 7.019531 -6.171875 7.3125 -5.609375 C 7.601562 -5.054688 8.015625 -4.625 8.546875 -4.3125 C 9.085938 -4 9.734375 -3.84375 10.484375 -3.84375 C 10.992188 -3.84375 11.457031 -3.914062 11.875 -4.0625 C 12.300781 -4.207031 12.664062 -4.414062 12.96875 -4.6875 C 13.269531 -4.96875 13.492188 -5.3125 13.640625 -5.71875 L 18.984375 -5.5625 C 18.753906 -4.363281 18.265625 -3.320312 17.515625 -2.4375 C 16.773438 -1.5625 15.796875 -0.878906 14.578125 -0.390625 C 13.367188 0.0976562 11.96875 0.34375 10.375 0.34375 Z M 10.375 0.34375 "/></g></g><g style="fill:#ffffff;fill-opacity:1;"><g transform="translate(175.026848, 199.499987)"><path style="stroke:none" d="M 1.84375 0 L 1.84375 -18.25 L 7.375 -18.25 L 7.375 -14.90625 L 7.578125 -14.90625 C 7.953125 -16.007812 8.585938 -16.882812 9.484375 -17.53125 C 10.390625 -18.175781 11.472656 -18.5 12.734375 -18.5 C 13.992188 -18.5 15.078125 -18.171875 15.984375 -17.515625 C 16.890625 -16.867188 17.460938 -16 17.703125 -14.90625 L 17.90625 -14.90625 C 18.238281 -15.988281 18.898438 -16.859375 19.890625 -17.515625 C 20.878906 -18.171875 22.050781 -18.5 23.40625 -18.5 C 25.132812 -18.5 26.535156 -17.941406 27.609375 -16.828125 C 28.679688 -15.722656 29.21875 -14.210938 29.21875 -12.296875 L 29.21875 0 L 23.40625 0 L 23.40625 -10.953125 C 23.40625 -11.867188 23.171875 -12.566406 22.703125 -13.046875 C 22.242188 -13.523438 21.640625 -13.765625 20.890625 -13.765625 C 20.085938 -13.765625 19.457031 -13.503906 19 -12.984375 C 18.550781 -12.460938 18.328125 -11.769531 18.328125 -10.90625 L 18.328125 0 L 12.734375 0 L 12.734375 -11.015625 C 12.734375 -11.867188 12.503906 -12.539062 12.046875 -13.03125 C 11.585938 -13.519531 10.984375 -13.765625 10.234375 -13.765625 C 9.722656 -13.765625 9.273438 -13.640625 8.890625 -13.390625 C 8.503906 -13.148438 8.203125 -12.804688 7.984375 -12.359375 C 7.765625 -11.921875 7.65625 -11.398438 7.65625 -10.796875 L 7.65625 0 Z M 1.84375 0 "/></g></g><g style="fill:#ffffff;fill-opacity:1;"><g transform="translate(206.012789, 199.499987)"><path style="stroke:none" d="M 1.84375 0 L 1.84375 -18.25 L 7.65625 -18.25 L 7.65625 0 Z M 4.75 -20.390625 C 3.9375 -20.390625 3.234375 -20.660156 2.640625 -21.203125 C 2.054688 -21.742188 1.765625 -22.398438 1.765625 -23.171875 C 1.765625 -23.929688 2.054688 -24.582031 2.640625 -25.125 C 3.234375 -25.664062 3.9375 -25.9375 4.75 -25.9375 C 5.570312 -25.9375 6.273438 -25.664062 6.859375 -25.125 C 7.441406 -24.582031 7.734375 -23.929688 7.734375 -23.171875 C 7.734375 -22.398438 7.441406 -21.742188 6.859375 -21.203125 C 6.273438 -20.660156 5.570312 -20.390625 4.75 -20.390625 Z M 4.75 -20.390625 "/></g></g><g style="fill:#ffffff;fill-opacity:1;"><g transform="translate(215.5058, 199.499987)"><path style="stroke:none" d=""/></g></g><g style="fill:#ffffff;fill-opacity:1;"><g transform="translate(222.705758, 199.499987)"><path style="stroke:none" d="M 1.84375 0 L 1.84375 -24.34375 L 7.71875 -24.34375 L 7.71875 -14.046875 L 8.046875 -14.046875 L 16.09375 -24.34375 L 23.015625 -24.34375 L 14.390625 -13.484375 L 23.171875 0 L 16.140625 0 L 10.078125 -9.5625 L 7.71875 -6.59375 L 7.71875 0 Z M 1.84375 0 "/></g></g><g style="fill:#ffffff;fill-opacity:1;"><g transform="translate(244.863727, 199.499987)"><path style="stroke:none" d="M 10.359375 0.34375 C 8.441406 0.34375 6.796875 -0.046875 5.421875 -0.828125 C 4.046875 -1.617188 2.988281 -2.722656 2.25 -4.140625 C 1.507812 -5.554688 1.140625 -7.195312 1.140625 -9.0625 C 1.140625 -10.945312 1.507812 -12.59375 2.25 -14 C 2.988281 -15.414062 4.046875 -16.519531 5.421875 -17.3125 C 6.796875 -18.101562 8.441406 -18.5 10.359375 -18.5 C 12.273438 -18.5 13.921875 -18.101562 15.296875 -17.3125 C 16.671875 -16.519531 17.726562 -15.414062 18.46875 -14 C 19.21875 -12.59375 19.59375 -10.945312 19.59375 -9.0625 C 19.59375 -7.195312 19.21875 -5.554688 18.46875 -4.140625 C 17.726562 -2.722656 16.671875 -1.617188 15.296875 -0.828125 C 13.921875 -0.046875 12.273438 0.34375 10.359375 0.34375 Z M 10.40625 -4.046875 C 11.101562 -4.046875 11.691406 -4.257812 12.171875 -4.6875 C 12.648438 -5.113281 13.019531 -5.707031 13.28125 -6.46875 C 13.539062 -7.226562 13.671875 -8.109375 13.671875 -9.109375 C 13.671875 -10.117188 13.539062 -11.003906 13.28125 -11.765625 C 13.019531 -12.523438 12.648438 -13.117188 12.171875 -13.546875 C 11.691406 -13.972656 11.101562 -14.1875 10.40625 -14.1875 C 9.675781 -14.1875 9.0625 -13.972656 8.5625 -13.546875 C 8.070312 -13.117188 7.695312 -12.523438 7.4375 -11.765625 C 7.1875 -11.003906 7.0625 -10.117188 7.0625 -9.109375 C 7.0625 -8.109375 7.1875 -7.226562 7.4375 -6.46875 C 7.695312 -5.707031 8.070312 -5.113281 8.5625 -4.6875 C 9.0625 -4.257812 9.675781 -4.046875 10.40625 -4.046875 Z M 10.40625 -4.046875 "/></g></g><g style="fill:#ffffff;fill-opacity:1;"><g transform="translate(265.584398, 199.499987)"><path style="stroke:none" d="M 10.359375 0.34375 C 8.429688 0.34375 6.78125 -0.0507812 5.40625 -0.84375 C 4.039062 -1.632812 2.988281 -2.738281 2.25 -4.15625 C 1.507812 -5.570312 1.140625 -7.207031 1.140625 -9.0625 C 1.140625 -10.9375 1.507812 -12.578125 2.25 -13.984375 C 2.988281 -15.398438 4.046875 -16.503906 5.421875 -17.296875 C 6.796875 -18.097656 8.441406 -18.5 10.359375 -18.5 C 12.046875 -18.5 13.515625 -18.191406 14.765625 -17.578125 C 16.023438 -16.960938 17.007812 -16.097656 17.71875 -14.984375 C 18.425781 -13.878906 18.800781 -12.578125 18.84375 -11.078125 L 13.40625 -11.078125 C 13.289062 -12.015625 12.972656 -12.75 12.453125 -13.28125 C 11.941406 -13.8125 11.269531 -14.078125 10.4375 -14.078125 C 9.757812 -14.078125 9.164062 -13.882812 8.65625 -13.5 C 8.15625 -13.125 7.765625 -12.570312 7.484375 -11.84375 C 7.203125 -11.113281 7.0625 -10.207031 7.0625 -9.125 C 7.0625 -8.050781 7.203125 -7.140625 7.484375 -6.390625 C 7.765625 -5.648438 8.15625 -5.09375 8.65625 -4.71875 C 9.164062 -4.34375 9.757812 -4.15625 10.4375 -4.15625 C 10.976562 -4.15625 11.453125 -4.269531 11.859375 -4.5 C 12.273438 -4.726562 12.617188 -5.066406 12.890625 -5.515625 C 13.160156 -5.960938 13.332031 -6.507812 13.40625 -7.15625 L 18.84375 -7.15625 C 18.78125 -5.644531 18.398438 -4.328125 17.703125 -3.203125 C 17.015625 -2.078125 16.046875 -1.203125 14.796875 -0.578125 C 13.554688 0.0351562 12.078125 0.34375 10.359375 0.34375 Z M 9.234375 -0.09375 L 11.5625 -0.09375 L 11.375 0.96875 C 12.238281 1.101562 12.929688 1.421875 13.453125 1.921875 C 13.984375 2.421875 14.25 3.078125 14.25 3.890625 C 14.257812 5.117188 13.671875 6.09375 12.484375 6.8125 C 11.304688 7.53125 9.660156 7.890625 7.546875 7.890625 L 7.53125 5.5 C 8.613281 5.5 9.453125 5.375 10.046875 5.125 C 10.640625 4.882812 10.945312 4.515625 10.96875 4.015625 C 11 3.554688 10.820312 3.1875 10.4375 2.90625 C 10.0625 2.632812 9.472656 2.453125 8.671875 2.359375 Z M 9.234375 -0.09375 "/></g></g><g style="fill:#ffffff;fill-opacity:1;"><g transform="translate(285.556535, 199.499987)"><path style="stroke:none" d="M 13.625 -7.875 L 13.625 -18.25 L 19.421875 -18.25 L 19.421875 0 L 13.875 0 L 13.875 -3.40625 L 13.6875 -3.40625 C 13.28125 -2.28125 12.59375 -1.390625 11.625 -0.734375 C 10.65625 -0.0859375 9.488281 0.234375 8.125 0.234375 C 6.875 0.234375 5.773438 -0.046875 4.828125 -0.609375 C 3.890625 -1.179688 3.160156 -1.976562 2.640625 -3 C 2.117188 -4.03125 1.851562 -5.238281 1.84375 -6.625 L 1.84375 -18.25 L 7.65625 -18.25 L 7.65625 -7.765625 C 7.664062 -6.773438 7.925781 -5.992188 8.4375 -5.421875 C 8.957031 -4.847656 9.660156 -4.5625 10.546875 -4.5625 C 11.117188 -4.5625 11.632812 -4.691406 12.09375 -4.953125 C 12.5625 -5.210938 12.929688 -5.585938 13.203125 -6.078125 C 13.484375 -6.578125 13.625 -7.175781 13.625 -7.875 Z M 13.625 -7.875 "/></g></g></g></svg>